<svg width="345" height="345" viewBox="0 0 345 345" fill="none" xmlns="http://www.w3.org/2000/svg">
<g filter="url(#filter0_f_57_239)">
<circle cx="172.148" cy="172.081" r="40" fill="#1ACE5F"/>
</g>
<path d="M171.651 151.037C172.482 150.473 173.569 150.461 174.412 151.006L213.543 176.292C215.091 177.292 215.061 179.566 213.489 180.526L214.791 182.66L213.489 180.526L174.356 204.413C173.539 204.912 172.509 204.901 171.703 204.384L134.472 180.497C132.962 179.528 132.934 177.332 134.417 176.324L171.651 151.037Z" stroke="#1ACE5F" stroke-width="5"/>
<path d="M174.728 170.078C173.958 171.411 172.034 171.411 171.264 170.078L159.61 149.893C158.841 148.559 159.803 146.893 161.342 146.893L184.65 146.893C186.189 146.893 187.152 148.559 186.382 149.893L174.728 170.078Z" fill="#1ACE5F"/>
<path d="M189.447 140.85C189.447 149.936 182.082 157.301 172.996 157.301C163.91 157.301 156.545 149.936 156.545 140.85C156.545 131.764 163.91 124.399 172.996 124.399C182.082 124.399 189.447 131.764 189.447 140.85ZM167.678 140.85C167.678 143.787 170.059 146.169 172.996 146.169C175.933 146.169 178.315 143.787 178.315 140.85C178.315 137.913 175.933 135.532 172.996 135.532C170.059 135.532 167.678 137.913 167.678 140.85Z" fill="#1ACE5F"/>
<defs>
<filter id="filter0_f_57_239" x="0.148041" y="0.0810547" width="344" height="344" filterUnits="userSpaceOnUse" color-interpolation-filters="sRGB">
<feFlood flood-opacity="0" result="BackgroundImageFix"/>
<feBlend mode="normal" in="SourceGraphic" in2="BackgroundImageFix" result="shape"/>
<feGaussianBlur stdDeviation="66" result="effect1_foregroundBlur_57_239"/>
</filter>
</defs>
</svg>
