<svg width="345" height="345" viewBox="0 0 345 345" fill="none" xmlns="http://www.w3.org/2000/svg">
<g filter="url(#filter0_f_57_264)">
<circle cx="172.171" cy="172.081" r="40" fill="#1ACE5F"/>
</g>
<rect x="172.171" y="172.35" width="11.7262" height="37.7309" rx="3.39732" transform="rotate(-45 172.171 172.35)" fill="#1ACE5F"/>
<path d="M189.656 148.487C189.656 165.368 175.972 179.052 159.091 179.052C142.21 179.052 128.525 165.368 128.525 148.487C128.525 131.606 142.21 117.921 159.091 117.921C175.972 117.921 189.656 131.606 189.656 148.487ZM135.882 148.487C135.882 161.305 146.273 171.696 159.091 171.696C171.909 171.696 182.3 161.305 182.3 148.487C182.3 135.669 171.909 125.277 159.091 125.277C146.273 125.277 135.882 135.669 135.882 148.487Z" fill="#1ACE5F"/>
<defs>
<filter id="filter0_f_57_264" x="0.170502" y="0.0810547" width="344" height="344" filterUnits="userSpaceOnUse" color-interpolation-filters="sRGB">
<feFlood flood-opacity="0" result="BackgroundImageFix"/>
<feBlend mode="normal" in="SourceGraphic" in2="BackgroundImageFix" result="shape"/>
<feGaussianBlur stdDeviation="66" result="effect1_foregroundBlur_57_264"/>
</filter>
</defs>
</svg>
