<svg width="345" height="345" viewBox="0 0 345 345" fill="none" xmlns="http://www.w3.org/2000/svg">
<path d="M125.313 146.151H136.952C138.083 146.151 139.116 146.794 139.616 147.809L155.785 180.637C156.285 181.652 157.318 182.295 158.449 182.295H198.655C199.819 182.295 200.876 181.615 201.358 180.555L215.108 150.352C216.003 148.385 214.565 146.151 212.405 146.151H204.882" stroke="#1ACE5F" stroke-width="4.45477"/>
<path d="M197.828 142.114C197.828 155.829 186.709 166.948 172.994 166.948C159.278 166.948 148.16 155.829 148.16 142.114C148.16 128.398 159.278 117.28 172.994 117.28C186.709 117.28 197.828 128.398 197.828 142.114ZM152.678 142.114C152.678 153.334 161.774 162.429 172.994 162.429C184.214 162.429 193.309 153.334 193.309 142.114C193.309 130.894 184.214 121.798 172.994 121.798C161.774 121.798 152.678 130.894 152.678 142.114Z" fill="#1ACE5F"/>
<path d="M169.148 196.876C169.148 201.738 165.206 205.68 160.344 205.68C155.481 205.68 151.539 201.738 151.539 196.876C151.539 192.013 155.481 188.071 160.344 188.071C165.206 188.071 169.148 192.013 169.148 196.876ZM157.172 196.876C157.172 198.628 158.592 200.048 160.344 200.048C162.095 200.048 163.515 198.628 163.515 196.876C163.515 195.124 162.095 193.704 160.344 193.704C158.592 193.704 157.172 195.124 157.172 196.876Z" fill="#1ACE5F"/>
<path d="M205.022 196.876C205.022 201.738 201.08 205.68 196.218 205.68C191.355 205.68 187.413 201.738 187.413 196.876C187.413 192.013 191.355 188.071 196.218 188.071C201.08 188.071 205.022 192.013 205.022 196.876ZM192.897 196.876C192.897 198.71 194.384 200.197 196.218 200.197C198.052 200.197 199.539 198.71 199.539 196.876C199.539 195.042 198.052 193.555 196.218 193.555C194.384 193.555 192.897 195.042 192.897 196.876Z" fill="#1ACE5F"/>
<path d="M173.884 123.497V129.268H170.912V123.497H173.884ZM173.517 155.016V160.189H170.564V155.016H173.517ZM176.432 148.782C176.432 148.036 176.277 147.386 175.969 146.832C175.673 146.266 175.184 145.758 174.502 145.308C173.82 144.844 172.906 144.413 171.761 144.014C170.114 143.435 168.673 142.786 167.437 142.065C166.215 141.332 165.263 140.431 164.581 139.363C163.912 138.282 163.577 136.937 163.577 135.329C163.577 133.746 163.937 132.376 164.658 131.218C165.391 130.059 166.408 129.165 167.708 128.535C169.007 127.904 170.526 127.589 172.263 127.589C173.601 127.589 174.804 127.788 175.872 128.187C176.953 128.586 177.873 129.172 178.632 129.944C179.391 130.716 179.97 131.668 180.369 132.8C180.781 133.92 180.987 135.207 180.987 136.661H176.355C176.355 135.837 176.258 135.104 176.065 134.46C175.885 133.804 175.615 133.251 175.254 132.8C174.894 132.337 174.457 131.983 173.942 131.739C173.44 131.494 172.867 131.372 172.224 131.372C171.31 131.372 170.558 131.546 169.966 131.893C169.374 132.228 168.936 132.691 168.653 133.283C168.383 133.875 168.248 134.55 168.248 135.309C168.248 136.043 168.389 136.686 168.673 137.24C168.956 137.793 169.438 138.295 170.12 138.745C170.815 139.183 171.767 139.627 172.977 140.077C174.637 140.669 176.071 141.332 177.281 142.065C178.503 142.786 179.443 143.68 180.099 144.748C180.768 145.803 181.103 147.135 181.103 148.743C181.103 150.403 180.717 151.812 179.945 152.97C179.185 154.128 178.117 155.01 176.741 155.615C175.377 156.207 173.787 156.502 171.973 156.502C170.828 156.502 169.689 156.355 168.557 156.059C167.437 155.75 166.421 155.248 165.507 154.553C164.594 153.858 163.867 152.938 163.326 151.793C162.786 150.635 162.515 149.219 162.515 147.547H167.186C167.186 148.55 167.321 149.387 167.592 150.056C167.862 150.725 168.229 151.252 168.692 151.639C169.155 152.025 169.67 152.301 170.236 152.468C170.815 152.636 171.394 152.719 171.973 152.719C172.938 152.719 173.749 152.559 174.405 152.237C175.074 151.902 175.576 151.439 175.911 150.847C176.258 150.242 176.432 149.554 176.432 148.782Z" fill="#1ACE5F"/>
<g filter="url(#filter0_f_55_233)">
<circle cx="172.085" cy="172.295" r="40" fill="#1ACE5F"/>
</g>
<defs>
<filter id="filter0_f_55_233" x="0.0852661" y="0.294922" width="344" height="344" filterUnits="userSpaceOnUse" color-interpolation-filters="sRGB">
<feFlood flood-opacity="0" result="BackgroundImageFix"/>
<feBlend mode="normal" in="SourceGraphic" in2="BackgroundImageFix" result="shape"/>
<feGaussianBlur stdDeviation="66" result="effect1_foregroundBlur_55_233"/>
</filter>
</defs>
</svg>
