<svg width="297" height="668" viewBox="0 0 297 668" fill="none" xmlns="http://www.w3.org/2000/svg">
<g filter="url(#filter0_f_168_32)">
<path d="M-73.1849 166.279C-70.8015 87.3372 -26.575 105.569 -4.75971 124.553C-3.00856 125.022 2.36049 127.399 9.82759 133.154C19.1615 140.347 38.3322 124.838 53.5773 120.477C68.8225 116.116 106.535 122.467 127.549 128.098C148.563 133.729 171.437 146.427 184.554 164.018C197.67 181.609 172.589 208.673 150.087 226.104C127.586 243.536 127.305 234.077 69.5251 309.623C11.7448 385.17 94.0536 354.672 109.5 377.579C124.946 400.487 120.614 409.649 113.701 428.443C106.789 447.236 99.0006 465.795 72.2932 484.915C45.5858 504.035 54.7479 508.367 58.1245 516.779C61.5011 525.192 73.2271 533.964 54.4628 551.459C35.6985 568.954 23.3944 555.334 4.9152 529.737C-13.564 504.14 -11.0001 508.58 -51.3227 487.453C-91.6453 466.326 -78.3399 472.706 -98.6622 425.97C-118.985 379.233 -87.7153 402.626 -71.1544 372.342C-54.5936 342.057 -47.2916 339.321 -54.2625 309.3C-61.2334 279.279 -76.1642 264.955 -73.1849 166.279Z" fill="#1ACE5F"/>
</g>
<defs>
<filter id="filter0_f_168_32" x="-213.304" y="0.142609" width="509.477" height="667.186" filterUnits="userSpaceOnUse" color-interpolation-filters="sRGB">
<feFlood flood-opacity="0" result="BackgroundImageFix"/>
<feBlend mode="normal" in="SourceGraphic" in2="BackgroundImageFix" result="shape"/>
<feGaussianBlur stdDeviation="54" result="effect1_foregroundBlur_168_32"/>
</filter>
</defs>
</svg>
