<svg width="654" height="654" viewBox="0 0 654 654" fill="none" xmlns="http://www.w3.org/2000/svg">
<path d="M533.992 446.384C502.311 501.257 450.129 541.298 388.926 557.697C327.723 574.097 262.512 565.512 207.638 533.83C152.765 502.149 112.724 449.967 96.3251 388.764C79.9257 327.561 88.5109 262.35 120.192 207.476L157.975 229.29C132.079 274.143 125.062 327.446 138.466 377.472C151.871 427.499 184.6 470.152 229.452 496.047C274.305 521.943 327.608 528.961 377.634 515.556C427.661 502.151 470.314 469.423 496.209 424.57L533.992 446.384Z" fill="#128F42"/>
<path d="M120.192 207.476C151.873 152.603 204.055 112.562 265.258 96.163C326.462 79.7636 391.673 88.3488 446.546 120.03C501.419 151.711 541.46 203.893 557.859 265.096C574.259 326.299 565.674 391.511 533.993 446.384L496.21 424.57C522.105 379.717 529.123 326.415 515.718 276.388C502.314 226.361 469.585 183.709 424.732 157.813C379.879 131.917 326.577 124.9 276.55 138.304C226.523 151.709 183.871 184.438 157.975 229.29L120.192 207.476Z" fill="#A2A2A2"/>
<path d="M463.108 405.46C442.281 441.534 407.977 467.857 367.742 478.638C327.507 489.419 284.637 483.775 248.563 462.948C212.489 442.12 186.167 407.816 175.386 367.581C164.605 327.346 170.249 284.476 191.076 248.402L215.914 262.743C198.89 292.229 194.277 327.27 203.089 360.158C211.901 393.045 233.417 421.085 262.904 438.109C292.39 455.133 327.431 459.746 360.319 450.934C393.206 442.122 421.246 420.606 438.27 391.12L463.108 405.46Z" fill="#A2A2A2"/>
<path d="M191.076 248.402C211.903 212.328 246.207 186.006 286.442 175.225C326.677 164.444 369.547 170.088 405.621 190.915C441.695 211.742 468.018 246.046 478.799 286.281C489.579 326.517 483.936 369.386 463.108 405.46L438.27 391.12C455.294 361.633 459.907 326.592 451.095 293.705C442.283 260.817 420.767 232.777 391.281 215.753C361.794 198.729 326.753 194.116 293.866 202.928C260.978 211.741 232.938 233.256 215.914 262.743L191.076 248.402Z" fill="#128F42"/>
</svg>
